<!--?xml version="1.0" encoding="UTF-8" standalone="no"?-->
<svg xmlns:dc="http://purl.org/dc/elements/1.1/" xmlns:cc="http://creativecommons.org/ns#" xmlns:rdf="http://www.w3.org/1999/02/22-rdf-syntax-ns#" xmlns:svg="http://www.w3.org/2000/svg" xmlns="http://www.w3.org/2000/svg" xmlns:sodipodi="http://sodipodi.sourceforge.net/DTD/sodipodi-0.dtd" xmlns:inkscape="http://www.inkscape.org/namespaces/inkscape" width="210mm" height="297mm" viewBox="0 0 210 297" version="1.1" id="svg8" sodipodi:docname="Portfolio2.svg" inkscape:version="1.0.1 (3bc2e813f5, 2020-09-07)" style="">
  <style></style>
  <defs id="defs2">
    <path width="103.16604" height="12.828937" id="rect22" d="M154.48179 90.3371 L257.64783 90.3371 L257.64783 103.166037 L154.48179 103.166037 Z" class="pTbEnndX_0"></path>
    <path width="53.186636" height="10.958051" id="rect16" d="M47.039437 92.475257 L100.226073 92.475257 L100.226073 103.433308 L47.039437 103.433308 Z" class="pTbEnndX_1"></path>
  </defs>
  <sodipodi:namedview id="base" pagecolor="#ffffff" bordercolor="#666666" borderopacity="1.0" inkscape:pageopacity="0.0" inkscape:pageshadow="2" inkscape:zoom="1.4" inkscape:cx="351.01999" inkscape:cy="288.75141" inkscape:document-units="mm" inkscape:current-layer="text12" inkscape:document-rotation="0" showgrid="false" inkscape:window-width="1920" inkscape:window-height="1017" inkscape:window-x="-8" inkscape:window-y="-8" inkscape:window-maximized="1"></sodipodi:namedview>
  <metadata id="metadata5">
    <rdf:rdf>
      <cc:work rdf:about="">
        <dc:format>image/svg+xml</dc:format>
        <dc:type rdf:resource="http://purl.org/dc/dcmitype/StillImage"></dc:type>
      </cc:work>
    </rdf:rdf>
  </metadata>
  <g inkscape:label="Layer 1" inkscape:groupmode="layer" id="layer1">
    <g aria-label="Portfolio" id="text12" style="font-style:normal;font-weight:normal;font-size:10.5833px;line-height:1.25;font-family:sans-serif;white-space:pre;inline-size:175.944;fill:#000000;fill-opacity:1;stroke:#ffffff;stroke-width:0.264583">
      <path d="m 55.401305,89.723653 q -0.628386,-0.220486 -0.628386,-1.135505 0,-0.71658 2.91042,-1.389064 2.921444,-0.683507 5.093234,-0.683507 2.403301,0 3.814414,0.992188 1.411112,0.992189 1.411112,2.634812 0,2.436374 -2.689933,4.365629 -2.678909,1.929256 -7.231952,2.83325 -1.20165,0.242535 -1.355991,0.4079 -0.143316,0.15434 -0.23151,1.962328 -0.07717,1.796966 -0.07717,2.502516 0,0.4961 -0.319706,0.89297 -0.308681,0.39688 -0.727605,0.39688 -0.970139,0 -0.970139,-1.31189 0,-0.71659 0.396875,-3.990808 l 0.782726,-6.537419 q 0.03307,-0.165365 0.01102,-0.948092 -0.01102,-0.782726 -0.187414,-0.992188 z m 2.293058,-0.628386 q -0.07717,0.319705 -0.15434,1.179602 -0.154341,1.53238 -0.385851,3.384465 -0.121268,0.97014 -0.231511,2.105644 3.627,-0.496094 6.438201,-2.028474 2.811201,-1.53238 2.811201,-3.362416 0,-2.248961 -3.483684,-2.248961 -2.282034,0 -4.994016,0.97014 z" style="font-style:normal;font-variant:normal;font-weight:normal;font-stretch:normal;font-size:22.5778px;font-family:'Segoe Print';-inkscape-font-specification:'Segoe Print';stroke-width:0.264583" id="path130" class="pTbEnndX_2"></path>
      <path d="m 72.246461,103.36073 q -1.510331,0 -2.491495,-1.14653 -0.981164,-1.14653 -0.981164,-2.833246 0,-2.844273 1.907206,-5.600353 1.918231,-2.767103 4.586116,-2.767103 1.763891,0 2.855298,1.355991 1.102432,1.355991 1.102432,3.230125 0,2.866322 -2.271009,5.313716 -2.259985,2.4474 -4.707384,2.4474 z m -1.53238,-4.266408 q 0,1.113458 0.463022,1.819008 0.474045,0.70556 1.245747,0.70556 1.642624,0 3.296271,-1.796963 1.653648,-1.807988 1.653648,-4.012851 0,-1.355991 -0.639411,-2.193839 -0.628386,-0.848873 -1.697745,-0.848873 -1.774915,0 -3.053735,2.182815 -1.267797,2.17179 -1.267797,4.145143 z" style="font-style:normal;font-variant:normal;font-weight:normal;font-stretch:normal;font-size:22.5778px;font-family:'Segoe Print';-inkscape-font-specification:'Segoe Print';stroke-width:0.264583" id="path132" class="pTbEnndX_3"></path>
      <path d="m 84.020432,98.432863 q 0.110243,-0.198438 0.264583,-0.551216 0.749654,-1.719793 1.37804,-2.689933 0.628386,-0.981164 1.37804,-1.874134 0.760678,-0.892969 1.378039,-1.355991 0.628386,-0.463021 1.135505,-0.63941 0.507118,-0.187414 0.981164,-0.187414 0.959116,0 1.565453,0.584289 0.606338,0.573265 0.606338,1.344967 0,0.341754 -0.220487,0.617362 -0.209462,0.275608 -0.650435,0.275608 -0.463021,0 -0.848872,-0.4079 -0.396875,-0.4079 -0.826824,-0.4079 -1.146529,0 -3.175003,2.778128 -2.028474,2.778128 -2.469447,6.118491 -0.110243,0.8599 -0.418924,1.13551 -0.308681,0.27561 -0.870921,0.27561 -0.540191,0 -0.782726,-0.80478 -0.242535,-0.80477 -0.242535,-2.71198 0,-0.518143 0.05512,-2.282033 0.06615,-2.083596 0.264584,-3.362417 0.03307,-0.209462 0.110243,-0.981164 0.07717,-0.848873 0.187413,-1.179602 0.121268,-0.33073 0.474046,-0.617362 0.363802,-0.286632 0.782726,-0.286632 0.4079,0 0.606338,0.264584 0.209462,0.253559 0.209462,0.551215 0,0.429949 -0.220486,1.212675 -0.25356,0.870921 -0.297657,1.201651 -0.03307,0.374827 -0.121267,0.782726 -0.110244,0.474046 -0.220487,2.491496 l -0.01102,0.4079 z" style="font-style:normal;font-variant:normal;font-weight:normal;font-stretch:normal;font-size:22.5778px;font-family:'Segoe Print';-inkscape-font-specification:'Segoe Print';stroke-width:0.264583" id="path134" class="pTbEnndX_4"></path>
      <path d="m 98.770968,91.685981 q 1.135504,-0.08819 2.138722,-0.209462 0.99218,-0.110243 1.65364,-0.110243 0.83785,0 1.05834,0.154341 0.22048,0.15434 0.22048,0.540191 0,0.89297 -1.24574,0.97014 -1.59853,0.09922 -2.943497,0.275608 -1.344966,0.176389 -1.45521,0.297656 -0.09922,0.110244 -0.661459,2.623788 -0.56224,2.50252 -0.56224,3.252173 0,1.212677 0.319705,1.620577 0.319706,0.39687 0.959116,0.39687 0.948091,0 2.634815,-1.42213 0.65043,-0.584292 1.00321,-0.584292 0.47405,0 0.47405,0.507118 0,0.793754 -1.53238,2.061544 -1.521361,1.25678 -3.119887,1.25678 -2.667884,0 -2.667884,-3.14193 0,-1.135509 0.551216,-3.516762 0.540191,-2.370228 0.540191,-2.844274 0,-0.165364 -0.264583,-0.165364 l -1.146529,0.09922 q -1.411113,0 -1.411113,-1.124481 0,-0.63941 0.650435,-0.63941 h 2.271009 q 0.231511,0 0.4079,-0.209462 0.176389,-0.209462 0.518143,-1.400088 0.341753,-1.201651 0.606337,-2.370229 0.264584,-1.157553 1.036286,-1.157553 0.474045,0 0.738629,0.33073 0.264584,0.330729 0.264584,0.617361 0,0.154341 -0.396876,1.576478 z" style="font-style:normal;font-variant:normal;font-weight:normal;font-stretch:normal;font-size:22.5778px;font-family:'Segoe Print';-inkscape-font-specification:'Segoe Print';stroke-width:0.264583" id="path136" class="pTbEnndX_5"></path>
      <path d="m 107.06125,103.31664 q -0.0772,0.2756 -0.41892,0.46302 -0.34175,0.18741 -0.68351,0.18741 -1.12448,0 -1.12448,-1.64262 0,-0.78273 0.51814,-4.431778 0.31971,-2.237937 0.31971,-3.39549 0,-0.198438 -0.46302,-0.518143 -0.47405,-0.308681 -0.47405,-0.606337 0,-0.474046 0.71658,-1.025262 0.55122,-0.429948 0.67249,-0.959115 0.13229,-0.529167 0.29765,-1.466234 0.56224,-3.417539 1.75287,-4.92787 1.20165,-1.510331 3.05374,-1.510331 0.98116,0 1.66467,0.672483 0.6835,0.661459 0.6835,1.653647 0,0.804776 -0.38585,1.830037 -0.37482,1.014237 -0.85989,1.014237 -0.36381,0 -0.36381,-0.363802 l 0.0772,-1.069359 q 0,-2.127693 -1.19062,-2.127693 -1.28985,0 -2.13872,2.535593 -0.84887,2.524568 -0.84887,4.11207 0,0.507118 0.66146,0.507118 2.87734,0 3.38446,-0.02205 0.51815,-0.02205 0.51815,0.429948 0,0.451997 -0.56224,0.694532 -0.55122,0.231511 -2.42535,0.418924 -1.59853,0.165365 -1.80799,0.275608 -0.73863,4.101046 -0.73863,7.309125 0,0.95911 0.0882,1.42213 0.0772,0.42995 0.0772,0.5402 z" style="font-style:normal;font-variant:normal;font-weight:normal;font-stretch:normal;font-size:22.5778px;font-family:'Segoe Print';-inkscape-font-specification:'Segoe Print';stroke-width:0.264583" id="path138" class="pTbEnndX_6"></path>
      <path d="m 116.49807,103.36073 q -1.51033,0 -2.49149,-1.14653 -0.98117,-1.14653 -0.98117,-2.833246 0,-2.844273 1.90721,-5.600353 1.91823,-2.767103 4.58611,-2.767103 1.76389,0 2.8553,1.355991 1.10243,1.355991 1.10243,3.230125 0,2.866322 -2.27101,5.313716 -2.25998,2.4474 -4.70738,2.4474 z m -1.53238,-4.266408 q 0,1.113458 0.46302,1.819008 0.47405,0.70556 1.24575,0.70556 1.64262,0 3.29627,-1.796963 1.65365,-1.807988 1.65365,-4.012851 0,-1.355991 -0.63941,-2.193839 -0.62839,-0.848873 -1.69775,-0.848873 -1.77491,0 -3.05373,2.182815 -1.2678,2.17179 -1.2678,4.145143 z" style="font-style:normal;font-variant:normal;font-weight:normal;font-stretch:normal;font-size:22.5778px;font-family:'Segoe Print';-inkscape-font-specification:'Segoe Print';stroke-width:0.264583" id="path140" class="pTbEnndX_7"></path>
      <path d="m 129.90364,84.145349 q 0.79375,0 0.79375,1.014237 0,0.903994 -0.95911,4.299483 -0.60634,2.138718 -0.93707,4.718408 -0.33073,2.57969 -0.33073,4.045924 0,1.819009 0.23151,3.615979 0.0441,0.34175 0.0441,0.49609 0,0.55122 -0.37483,0.94809 -0.37483,0.39688 -0.79375,0.39688 -0.58429,0 -0.8158,-0.72761 -0.22049,-0.7276 -0.22049,-2.34818 0,-3.693143 0.88195,-9.150179 0.89297,-5.457037 1.41111,-6.38308 0.52917,-0.926042 1.06936,-0.926042 z" style="font-style:normal;font-variant:normal;font-weight:normal;font-stretch:normal;font-size:22.5778px;font-family:'Segoe Print';-inkscape-font-specification:'Segoe Print';stroke-width:0.264583" id="path142" class="pTbEnndX_8"></path>
      <path d="m 136.05521,88.047957 q -0.23151,0 -0.35278,-0.496095 -0.0441,-0.15434 -0.12127,-0.341753 -0.29765,-0.716581 -0.29765,-1.245748 0,-0.440973 0.51814,-0.89297 0.52917,-0.463021 1.16858,-0.463021 0.3197,0 0.71658,0.253559 0.39687,0.242535 0.39687,0.474046 0,0.363802 -0.2756,1.234723 -0.26459,0.870921 -0.8599,1.179602 -0.58429,0.297657 -0.89297,0.297657 z m -1.44418,12.314163 q 0,0.83785 0.23151,1.88516 0.0441,0.19843 0.0441,0.33073 0,0.19843 -0.3638,0.50711 -0.3638,0.31971 -0.7717,0.31971 -1.06936,0 -1.06936,-1.96233 0,-2.028473 0.83785,-6.416151 0.28663,-1.53238 0.28663,-1.885158 0,-0.694532 0.25356,-1.179602 0.25356,-0.496094 0.71658,-0.496094 0.56224,0 0.88195,0.275608 0.33072,0.264583 0.33072,0.595313 0,0.330729 -0.15434,0.870921 -0.82682,2.91042 -1.02526,4.167192 -0.19843,1.256772 -0.19843,2.987591 z" style="font-style:normal;font-variant:normal;font-weight:normal;font-stretch:normal;font-size:22.5778px;font-family:'Segoe Print';-inkscape-font-specification:'Segoe Print';stroke-width:0.264583" id="path144" class="pTbEnndX_9"></path>
      <path d="m 142.25087,103.36073 q -1.51033,0 -2.49149,-1.14653 -0.98117,-1.14653 -0.98117,-2.833246 0,-2.844273 1.90721,-5.600353 1.91823,-2.767103 4.58611,-2.767103 1.76389,0 2.8553,1.355991 1.10243,1.355991 1.10243,3.230125 0,2.866322 -2.27101,5.313716 -2.25998,2.4474 -4.70738,2.4474 z m -1.53238,-4.266408 q 0,1.113458 0.46302,1.819008 0.47405,0.70556 1.24575,0.70556 1.64262,0 3.29627,-1.796963 1.65365,-1.807988 1.65365,-4.012851 0,-1.355991 -0.63941,-2.193839 -0.62839,-0.848873 -1.69775,-0.848873 -1.77491,0 -3.05373,2.182815 -1.2678,2.17179 -1.2678,4.145143 z" style="font-style:normal;font-variant:normal;font-weight:normal;font-stretch:normal;font-size:22.5778px;font-family:'Segoe Print';-inkscape-font-specification:'Segoe Print';stroke-width:0.264583" id="path146" class="pTbEnndX_10"></path>
    </g>
    <g id="text14" style="font-style:normal;font-weight:normal;font-size:10.5833px;line-height:1.25;font-family:sans-serif;white-space:pre;shape-inside:url(#rect16);fill:#000000;fill-opacity:1;stroke:none"></g>
    <g id="text20" style="font-style:normal;font-weight:normal;font-size:10.5833px;line-height:1.25;font-family:sans-serif;white-space:pre;shape-inside:url(#rect22);fill:#000000;fill-opacity:1;stroke:none"></g>
  </g>
<style data-made-with="vivus-instant">.pTbEnndX_0{stroke-dasharray:232 234;stroke-dashoffset:233;animation:pTbEnndX_draw 3399ms linear 0ms forwards;}.pTbEnndX_1{stroke-dasharray:129 131;stroke-dashoffset:130;animation:pTbEnndX_draw 1896ms linear 3399ms forwards;}.pTbEnndX_2{stroke-dasharray:81 83;stroke-dashoffset:82;animation:pTbEnndX_draw 1196ms linear 5296ms forwards;}.pTbEnndX_3{stroke-dasharray:60 62;stroke-dashoffset:61;animation:pTbEnndX_draw 890ms linear 6492ms forwards;}.pTbEnndX_4{stroke-dasharray:52 54;stroke-dashoffset:53;animation:pTbEnndX_draw 773ms linear 7382ms forwards;}.pTbEnndX_5{stroke-dasharray:62 64;stroke-dashoffset:63;animation:pTbEnndX_draw 919ms linear 8156ms forwards;}.pTbEnndX_6{stroke-dasharray:65 67;stroke-dashoffset:66;animation:pTbEnndX_draw 962ms linear 9075ms forwards;}.pTbEnndX_7{stroke-dasharray:60 62;stroke-dashoffset:61;animation:pTbEnndX_draw 890ms linear 10038ms forwards;}.pTbEnndX_8{stroke-dasharray:42 44;stroke-dashoffset:43;animation:pTbEnndX_draw 627ms linear 10928ms forwards;}.pTbEnndX_9{stroke-dasharray:37 39;stroke-dashoffset:38;animation:pTbEnndX_draw 554ms linear 11555ms forwards;}.pTbEnndX_10{stroke-dasharray:60 62;stroke-dashoffset:61;animation:pTbEnndX_draw 890ms linear 12109ms forwards;}@keyframes pTbEnndX_draw{100%{stroke-dashoffset:0;}}@keyframes pTbEnndX_fade{0%{stroke-opacity:1;}97.67441860465117%{stroke-opacity:1;}100%{stroke-opacity:0;}}</style></svg>
